<mxfile host="app.diagrams.net" modified="2023-01-19T17:34:03.026Z" agent="5.0 (Windows NT 10.0; Win64; x64) AppleWebKit/537.36 (KHTML, like Gecko) Chrome/109.0.0.0 Safari/537.36" etag="TSnaRrwX1vByZdkGF_Tc" version="20.8.7" type="github">
  <diagram id="C5RBs43oDa-KdzZeNtuy" name="Page-1">
    <mxGraphModel dx="525" dy="275" grid="1" gridSize="10" guides="1" tooltips="1" connect="1" arrows="1" fold="1" page="1" pageScale="1" pageWidth="827" pageHeight="1169" math="0" shadow="0">
      <root>
        <mxCell id="WIyWlLk6GJQsqaUBKTNV-0" />
        <mxCell id="WIyWlLk6GJQsqaUBKTNV-1" parent="WIyWlLk6GJQsqaUBKTNV-0" />
        <mxCell id="WIyWlLk6GJQsqaUBKTNV-2" value="" style="rounded=0;html=1;jettySize=auto;orthogonalLoop=1;fontSize=11;endArrow=block;endFill=0;endSize=8;strokeWidth=1;shadow=0;labelBackgroundColor=none;edgeStyle=orthogonalEdgeStyle;" parent="WIyWlLk6GJQsqaUBKTNV-1" source="WIyWlLk6GJQsqaUBKTNV-3" edge="1">
          <mxGeometry relative="1" as="geometry">
            <mxPoint x="440" y="140" as="targetPoint" />
            <Array as="points">
              <mxPoint x="440" y="130" />
            </Array>
          </mxGeometry>
        </mxCell>
        <mxCell id="WIyWlLk6GJQsqaUBKTNV-3" value="Do you want to play a game of Black-Jack, type &#39;y&#39; or &#39;n&#39;." style="rounded=1;whiteSpace=wrap;html=1;fontSize=12;glass=0;strokeWidth=1;shadow=0;" parent="WIyWlLk6GJQsqaUBKTNV-1" vertex="1">
          <mxGeometry x="380" y="40" width="120" height="40" as="geometry" />
        </mxCell>
        <mxCell id="4D6YyWOy4u3c2OcfM5rZ-1" value="y" style="text;html=1;align=center;verticalAlign=middle;resizable=0;points=[];autosize=1;strokeColor=none;fillColor=none;" vertex="1" parent="WIyWlLk6GJQsqaUBKTNV-1">
          <mxGeometry x="430" y="80" width="30" height="30" as="geometry" />
        </mxCell>
        <mxCell id="4D6YyWOy4u3c2OcfM5rZ-6" value="" style="edgeStyle=orthogonalEdgeStyle;rounded=0;orthogonalLoop=1;jettySize=auto;html=1;" edge="1" parent="WIyWlLk6GJQsqaUBKTNV-1" source="4D6YyWOy4u3c2OcfM5rZ-2" target="4D6YyWOy4u3c2OcfM5rZ-4">
          <mxGeometry relative="1" as="geometry" />
        </mxCell>
        <mxCell id="4D6YyWOy4u3c2OcfM5rZ-2" value="print(logo)" style="rounded=1;whiteSpace=wrap;html=1;" vertex="1" parent="WIyWlLk6GJQsqaUBKTNV-1">
          <mxGeometry x="400" y="140" width="80" height="30" as="geometry" />
        </mxCell>
        <mxCell id="4D6YyWOy4u3c2OcfM5rZ-8" value="" style="edgeStyle=orthogonalEdgeStyle;rounded=0;orthogonalLoop=1;jettySize=auto;html=1;" edge="1" parent="WIyWlLk6GJQsqaUBKTNV-1" source="4D6YyWOy4u3c2OcfM5rZ-4" target="4D6YyWOy4u3c2OcfM5rZ-7">
          <mxGeometry relative="1" as="geometry" />
        </mxCell>
        <mxCell id="4D6YyWOy4u3c2OcfM5rZ-11" value="" style="edgeStyle=orthogonalEdgeStyle;rounded=0;orthogonalLoop=1;jettySize=auto;html=1;" edge="1" parent="WIyWlLk6GJQsqaUBKTNV-1" source="4D6YyWOy4u3c2OcfM5rZ-4" target="4D6YyWOy4u3c2OcfM5rZ-9">
          <mxGeometry relative="1" as="geometry" />
        </mxCell>
        <mxCell id="4D6YyWOy4u3c2OcfM5rZ-4" value="Draw two cards for user and computer each." style="rounded=1;whiteSpace=wrap;html=1;" vertex="1" parent="WIyWlLk6GJQsqaUBKTNV-1">
          <mxGeometry x="395" y="220" width="90" height="50" as="geometry" />
        </mxCell>
        <mxCell id="4D6YyWOy4u3c2OcfM5rZ-13" value="" style="edgeStyle=orthogonalEdgeStyle;rounded=0;orthogonalLoop=1;jettySize=auto;html=1;" edge="1" parent="WIyWlLk6GJQsqaUBKTNV-1" source="4D6YyWOy4u3c2OcfM5rZ-7" target="4D6YyWOy4u3c2OcfM5rZ-12">
          <mxGeometry relative="1" as="geometry" />
        </mxCell>
        <mxCell id="4D6YyWOy4u3c2OcfM5rZ-7" value="print sum of user&#39;s two cards&lt;br&gt;&amp;amp;&lt;br&gt;show comp. first card" style="whiteSpace=wrap;html=1;rounded=1;" vertex="1" parent="WIyWlLk6GJQsqaUBKTNV-1">
          <mxGeometry x="700" y="330" width="120" height="60" as="geometry" />
        </mxCell>
        <mxCell id="4D6YyWOy4u3c2OcfM5rZ-9" value="If comp has blackjack i.e. 11+10, comp. won even if user had bj.&lt;br&gt;Else user won." style="whiteSpace=wrap;html=1;rounded=1;" vertex="1" parent="WIyWlLk6GJQsqaUBKTNV-1">
          <mxGeometry x="380" y="330" width="120" height="60" as="geometry" />
        </mxCell>
        <mxCell id="4D6YyWOy4u3c2OcfM5rZ-12" value="print(&quot;Type &#39;y&#39; to get another card type &#39;n&#39; to pass.&quot;)" style="whiteSpace=wrap;html=1;rounded=1;" vertex="1" parent="WIyWlLk6GJQsqaUBKTNV-1">
          <mxGeometry x="700" y="470" width="120" height="60" as="geometry" />
        </mxCell>
      </root>
    </mxGraphModel>
  </diagram>
</mxfile>
